# Blender v2.93.1 OBJ File: 'advert.blend'
# www.blender.org
mtllib advert.mtl
o Cube
v 3.312546 1.748848 -0.411370
v 3.312546 1.748848 0.411370
v -3.312546 1.748848 -0.411370
v -3.312546 1.748848 0.411370
v -2.918499 1.748848 0.411370
v -2.918499 1.748848 -0.411370
v 2.909498 1.748848 -0.411370
v 2.909498 1.748848 0.411370
v 3.312546 1.448301 -0.411370
v -3.312546 1.448301 0.411370
v 3.312546 1.448301 0.411370
v -3.312546 1.448301 -0.411370
v -2.918499 1.448301 -0.411370
v -2.918499 1.448301 0.411370
v 2.909498 1.448301 0.411370
v 2.909498 1.448301 -0.411370
v -3.312546 -1.478918 -0.411370
v 2.909498 -1.478918 0.411370
v 2.909498 -1.478918 -0.411370
v 2.909498 1.448301 0.572220
v -2.918499 1.448301 0.572220
v -2.918499 -1.478918 0.572220
v 2.909498 -1.478918 0.572220
v 2.909498 -1.935951 -0.411370
v 3.312546 -1.935951 0.411370
v 3.312546 -1.935951 -0.411370
v -3.312546 -1.935951 -0.411370
v -3.312546 -1.935951 0.411370
v -2.918499 -1.935951 0.411370
v 2.909498 -1.935951 0.411370
v -2.918499 -1.935951 -0.411370
v -2.918499 -1.478918 0.411370
v -3.312546 -1.478918 0.411370
v 3.312546 -1.478918 -0.411370
v 3.312546 -1.478918 0.411370
v -2.918499 -1.478918 -0.411370
v 3.312546 -1.802159 0.411370
v -3.312546 -1.802159 0.411370
v -3.312546 -1.802159 -0.411370
v 3.312546 -1.802159 -0.411370
v 2.909498 -1.802159 0.411370
v -2.918499 -1.802159 0.411370
v -2.918499 -1.802159 -0.411370
v 2.909498 -1.802159 -0.411370
v 3.476954 -1.802159 0.411370
v 3.476954 -1.935951 0.411370
v 3.476954 -1.802159 -0.411370
v 3.476954 -1.935951 -0.411370
v -3.476954 -1.935951 0.411370
v -3.476954 -1.935951 -0.411370
v -3.476954 -1.802159 0.411370
v -3.476954 -1.802159 -0.411370
v 3.312546 -1.802159 0.634433
v 3.312546 -1.935951 0.634433
v 3.312546 -1.802159 -0.634433
v 3.312546 -1.935951 -0.634433
v 2.909498 -1.935951 -0.634433
v 2.909498 -1.802159 -0.634433
v -2.918499 -1.935951 -0.634433
v 2.909498 -1.935951 0.634433
v -2.918499 -1.935951 0.634433
v -3.312546 -1.935951 -0.634433
v -3.312546 -1.935951 0.634433
v -2.918499 -1.802159 -0.634433
v 2.909498 -1.802159 0.634433
v -2.918499 -1.802159 0.634433
v -3.312546 -1.802159 -0.634433
v -3.312546 -1.802159 0.634433
v 3.476954 -1.802159 0.634433
v 3.476954 -1.935951 0.634433
v 3.476954 -1.802159 -0.634433
v 3.476954 -1.935951 -0.634433
v -3.476954 -1.935951 0.634433
v -3.476954 -1.802159 0.634433
v -3.476954 -1.802159 -0.634433
v -3.476954 -1.935951 -0.634433
vt 0.619998 0.487489
vt 0.619998 0.518318
vt 0.555630 0.518318
vt 0.555630 0.487489
vt 0.023513 0.030828
vt 0.000000 0.030828
vt 0.000000 0.000000
vt 0.023513 0.000000
vt 0.748733 0.254302
vt 0.748733 0.277815
vt 0.684366 0.277815
vt 0.684366 0.254302
vt 0.684366 0.254302
vt 0.684366 0.277815
vt 0.619998 0.277815
vt 0.619998 0.254302
vt 0.301329 0.031533
vt 0.277815 0.031533
vt 0.277815 0.000000
vt 0.301329 0.000000
vt 0.301329 0.518318
vt 0.277815 0.518318
vt 0.277815 0.487489
vt 0.301329 0.487489
vt 0.023513 0.486785
vt 0.000000 0.486785
vt 0.619998 0.031533
vt 0.555630 0.031533
vt 0.619998 0.000000
vt 0.555630 0.000000
vt 0.023513 0.518318
vt 0.000000 0.518318
vt 0.530341 0.487489
vt 0.530341 0.031533
vt 0.252526 0.518318
vt 0.252526 0.486785
vt 0.637584 0.506828
vt 0.637584 0.277815
vt 0.650168 0.277815
vt 0.650168 0.506828
vt 0.530341 0.518318
vt 0.530341 0.000000
vt 0.684366 0.025289
vt 0.619998 0.025289
vt 0.748733 0.025289
vt 0.684366 0.025289
vt 0.252526 0.030828
vt 0.252526 0.000000
vt 0.901365 0.000000
vt 0.901365 0.012863
vt 0.883914 0.012863
vt 0.883914 0.000000
vt 0.965733 0.043691
vt 0.965733 0.499648
vt 0.965733 0.531181
vt 0.901365 0.531181
vt 0.901365 0.499648
vt 0.901365 0.043691
vt 0.965733 0.012863
vt 0.883914 0.499648
vt 0.883914 0.043691
vt 0.866462 0.012863
vt 0.802095 0.012863
vt 0.802095 0.000000
vt 0.866462 0.000000
vt 0.850410 0.564977
vt 0.850410 0.982971
vt 0.018197 0.982971
vt 0.018197 0.564977
vt 0.761317 0.000000
vt 0.761317 0.455957
vt 0.748733 0.455957
vt 0.748733 0.000000
vt 0.773902 0.000000
vt 0.773902 0.455957
vt 0.761317 0.455957
vt 0.761317 0.000000
vt 0.637584 0.277815
vt 0.637584 0.506828
vt 0.625000 0.506828
vt 0.625000 0.277815
vt 0.866462 0.044395
vt 0.883914 0.012863
vt 0.883914 0.044395
vt 0.619998 -0.000000
vt 0.684366 -0.000000
vt 0.555630 0.031533
vt 0.555630 0.487489
vt 0.555630 0.518318
vt 0.277815 0.030828
vt 0.277815 0.486785
vt 0.684366 -0.000000
vt 0.748733 -0.000000
vt 0.277815 0.518318
vt 0.277815 0.000000
vt 0.555630 0.000000
vt 0.901365 0.544043
vt 0.883914 0.544043
vt 0.883914 0.531181
vt 0.866462 0.531181
vt 0.866462 0.500352
vt 0.883914 0.500352
vt 0.883914 0.531181
vt 0.883914 0.000000
vt 0.855995 0.449362
vt 0.855995 0.513729
vt 0.845528 0.513729
vt 0.845528 0.449362
vt 0.866462 0.449362
vt 0.866462 0.513729
vt 0.855995 0.513729
vt 0.855995 0.449362
vt 0.965733 0.000000
vt 0.983184 0.043691
vt 0.983184 0.499648
vt 0.802095 0.531181
vt 0.866462 0.544043
vt 0.802095 0.544043
vt 0.965733 0.544043
vt 0.866462 0.531181
vt 0.855995 0.531181
vt 0.993651 0.012863
vt 0.993651 0.043691
vt 0.983184 0.043691
vt 0.983184 0.012863
vt 0.983184 0.531181
vt 0.993651 0.531181
vt 0.993651 0.544043
vt 0.983184 0.544043
vt 0.812562 0.012863
vt 0.812562 0.044395
vt 0.802095 0.044395
vt 0.802095 0.012863
vt 0.812562 0.500352
vt 0.802095 0.500352
vt 0.993651 0.499648
vt 0.983184 0.499648
vt 0.812562 0.531181
vt 0.802095 0.531181
vt 0.812562 0.544043
vt 0.802095 0.544043
vt 0.802095 0.000000
vt 0.812562 0.000000
vt 0.983184 0.000000
vt 0.993651 0.000000
vt 0.983184 0.012863
vt 0.983184 0.000000
vt 0.983184 0.531181
vt 0.883914 0.544043
vt 0.802095 0.500352
vt 0.784643 0.531181
vt 0.784643 0.500352
vt 0.855995 0.531181
vt 0.845528 0.531181
vt 0.784643 0.544043
vt 0.845528 0.431910
vt 0.855995 0.431910
vt 0.802095 0.044395
vt 0.784643 0.044395
vt 0.784643 0.012863
vt 0.855995 0.431910
vt 0.866462 0.431910
vt 0.983184 0.544043
vt 0.784643 0.000000
vn 0.0000 1.0000 0.0000
vn 0.0000 0.0000 1.0000
vn -1.0000 0.0000 0.0000
vn 1.0000 0.0000 0.0000
vn 0.0000 0.0000 -1.0000
vn 0.0000 -1.0000 0.0000
usemtl Material
s off
f 6/1/1 3/2/1 4/3/1 5/4/1
f 14/5/2 5/6/2 4/7/2 10/8/2
f 10/9/3 4/10/3 3/11/3 12/12/3
f 9/13/4 1/14/4 2/15/4 11/16/4
f 16/17/5 7/18/5 1/19/5 9/20/5
f 12/21/5 3/22/5 6/23/5 13/24/5
f 15/25/2 8/26/2 5/6/2 14/5/2
f 7/27/1 6/1/1 5/4/1 8/28/1
f 1/29/1 7/27/1 8/28/1 2/30/1
f 11/31/2 2/32/2 8/26/2 15/25/2
f 13/24/5 6/23/5 7/18/5 16/17/5
f 36/33/5 13/24/5 16/17/5 19/34/5
f 35/35/2 11/31/2 15/25/2 18/36/2
f 14/37/3 32/38/3 22/39/3 21/40/3
f 17/41/5 12/21/5 13/24/5 36/33/5
f 19/34/5 16/17/5 9/20/5 34/42/5
f 34/43/4 9/13/4 11/16/4 35/44/4
f 33/45/3 10/9/3 12/12/3 17/46/3
f 32/47/2 14/5/2 10/8/2 33/48/2
f 49/49/6 28/50/6 63/51/6 73/52/6
f 31/53/6 24/54/6 26/55/6 25/56/6 30/57/6 29/58/6 28/50/6 27/59/6
f 29/58/6 30/57/6 60/60/6 61/61/6
f 40/62/1 37/63/1 45/64/1 47/65/1
f 23/66/2 20/67/2 21/68/2 22/69/2
f 32/70/6 18/71/6 23/72/6 22/73/6
f 15/74/1 14/75/1 21/76/1 20/77/1
f 18/78/4 15/79/4 20/80/4 23/81/4
f 44/82/1 40/62/1 55/83/1 58/84/1
f 34/43/4 35/44/4 37/85/4 40/86/4
f 36/33/5 19/34/5 44/87/5 43/88/5
f 17/41/5 36/33/5 43/88/5 39/89/5
f 18/36/2 32/47/2 42/90/2 41/91/2
f 33/45/3 17/46/3 39/92/3 38/93/3
f 35/35/2 18/36/2 41/91/2 37/94/2
f 32/47/2 33/48/2 38/95/2 42/90/2
f 19/34/5 34/42/5 40/96/5 44/87/5
f 25/56/6 46/97/6 70/98/6 54/99/6
f 30/57/6 25/56/6 54/99/6 60/60/6
f 39/100/1 43/101/1 64/102/1 67/103/1
f 40/62/1 47/65/1 71/104/1 55/83/1
f 50/105/3 49/106/3 51/107/3 52/108/3
f 46/109/4 48/110/4 47/111/4 45/112/4
f 27/59/6 28/50/6 49/49/6 50/113/6
f 24/54/6 31/53/6 59/114/6 57/115/6
f 38/116/1 39/100/1 52/117/1 51/118/1
f 28/50/6 29/58/6 61/61/6 63/51/6
f 25/56/6 26/55/6 48/119/6 46/97/6
f 47/111/4 48/110/4 72/120/4 71/121/4
f 63/122/2 61/123/2 66/124/2 68/125/2
f 53/126/2 54/127/2 70/128/2 69/129/2
f 56/130/5 57/131/5 58/132/5 55/133/5
f 57/131/5 59/134/5 64/135/5 58/132/5
f 60/136/2 54/127/2 53/126/2 65/137/2
f 61/123/2 60/136/2 65/137/2 66/124/2
f 59/134/5 62/138/5 67/139/5 64/135/5
f 67/139/5 62/138/5 76/140/5 75/141/5
f 56/130/5 55/133/5 71/142/5 72/143/5
f 63/122/2 68/125/2 74/144/2 73/145/2
f 31/53/6 27/59/6 62/146/6 59/114/6
f 27/59/6 50/113/6 76/147/6 62/146/6
f 26/55/6 24/54/6 57/115/6 56/148/6
f 52/117/1 39/100/1 67/103/1 75/149/1
f 42/150/1 38/116/1 68/151/1 66/152/1
f 51/107/3 49/106/3 73/153/3 74/154/3
f 43/101/1 44/82/1 58/84/1 64/102/1
f 38/116/1 51/118/1 74/155/1 68/151/1
f 50/105/3 52/108/3 75/156/3 76/157/3
f 37/63/1 41/158/1 65/159/1 53/160/1
f 46/109/4 45/112/4 69/161/4 70/162/4
f 48/119/6 26/55/6 56/148/6 72/163/6
f 45/64/1 37/63/1 53/160/1 69/164/1
f 41/158/1 42/150/1 66/152/1 65/159/1
